<?xml version="1.0" encoding="UTF-8"?>
<svg width="229px" height="59px" viewBox="0 0 229 59" version="1.1" xmlns="http://www.w3.org/2000/svg" xmlns:xlink="http://www.w3.org/1999/xlink">
    <!-- Generator: Sketch 3.8.1 (29687) - http://www.bohemiancoding.com/sketch -->
    <title>Acosta</title>
    <desc>Created with Sketch.</desc>
    <defs></defs>
    <g id="Home-Page" stroke="none" stroke-width="1" fill="none" fill-rule="evenodd">
        <g id="Desktop" transform="translate(-946.000000, -186.000000)" stroke="#FFFFFF">
            <g id="Acosta" transform="translate(947.000000, 186.000000)">
                <g id="a" transform="translate(192.000000, 15.000000)">
                    <path d="M2.84540458,13.1965691 C2.84540458,13.1965691 2.75386233,0.359165134 17.3938471,0.622341018 C32.033832,0.885516901 30.7687085,13.1855994 30.7687095,13.6801406 C30.7687105,14.1746818 30.7687095,37.3717334 30.7687095,37.3717334 C30.7687095,37.3717334 30.5304488,41.5856013 35.9383584,41.1663673" id="Path-20"></path>
                    <path d="M30.7875844,13.6101702 C30.7875844,13.6101702 29.4325525,16.6317895 28.506585,17.5355814 C27.5806176,18.4393734 26.3449668,19.6078832 16.7494706,20.3171305 C7.15397443,21.0263778 1.40672895,20.4964046 0.235800944,31.1891327 C-0.935127058,41.8818608 10.3896696,42.388679 14.5490848,42.3886802 C18.7085,42.3886815 25.2694848,38.5729689 27.4081752,35.1872547 C29.5468656,31.8015405 30.7875844,28.8555954 30.7875844,28.8555954" id="Path-21"></path>
                </g>
                <g id="T" transform="translate(169.000000, 2.000000)">
                    <path d="M7.95496643,0.996511586 L7.95496643,46.1188678 C7.95496643,46.1188678 6.69384499,55.6911535 17.1899809,53.9459176" id="Path-31"></path>
                    <path d="M0.102802241,14.63426 L17.7230661,14.7070171" id="Path-32"></path>
                </g>
                <path d="M162.879854,27.8046542 C162.879854,27.8046542 164.288859,15.8575818 149.656977,15.3242378 C135.025095,14.7908937 135.509929,25.5493158 135.863482,27.3124208 C136.217034,29.0755258 138.343833,35.0590649 155.111832,37.4380107 C171.879831,39.8169566 161.870721,55.3943854 154.210683,57.010314 C147.411232,58.444697 142.3452,57.9793815 138.013706,53.9351817 C137.465481,53.4233191 133.591699,49.4459272 134.142584,42.9959174" id="S"></path>
                <path d="M121.235213,20.9596439 C121.235213,20.9596439 109.329052,8.75236685 95.9253309,21.3096096 C82.52161,33.8668523 94.4668491,58.1791747 107.851031,57.4237661 C121.235213,56.6683576 125.629802,47.4795393 126.78926,38.4481218 C127.545919,32.5542412 123.798691,25.1132974 121.800427,21.8005573 C120.736676,20.0370596 118.997864,19.2915647 119.134837,19.2915647" id="O"></path>
                <path d="M83.5431162,28.2113686 C83.5431162,28.2113686 82.2642674,15.590883 68.2806544,15.590883 C54.2970414,15.590883 49.9620523,29.5718556 50.2147128,38.0551061 C50.4673733,46.5383565 55.2260543,57.7107971 67.4314609,57.3903153 C79.6368674,57.0698335 83.8717926,48.6003902 83.8717922,43.1232855" id="C"></path>
                <g id="A">
                    <polyline id="Path-25" points="0.121407794 56.7441931 22.4396124 0.824604564 24.0714224 0.824604564 45.9020698 56.8258783"></polyline>
                    <path d="M7.91711595,37.3708145 L38.002592,37.3466889" id="Path-26"></path>
                </g>
            </g>
        </g>
    </g>
</svg>